<mxfile host="app.diagrams.net" modified="2022-07-29T06:26:42.597Z" agent="5.0 (Windows NT 10.0; Win64; x64) AppleWebKit/537.36 (KHTML, like Gecko) Chrome/103.0.0.0 Safari/537.36" etag="0FcBqYmDp5mC5e72jPoU" version="20.2.2" type="github">
  <diagram id="C5RBs43oDa-KdzZeNtuy" name="Page-1">
    <mxGraphModel dx="1422" dy="794" grid="1" gridSize="10" guides="1" tooltips="1" connect="1" arrows="1" fold="1" page="1" pageScale="1" pageWidth="827" pageHeight="1169" math="0" shadow="0">
      <root>
        <mxCell id="WIyWlLk6GJQsqaUBKTNV-0" />
        <mxCell id="WIyWlLk6GJQsqaUBKTNV-1" parent="WIyWlLk6GJQsqaUBKTNV-0" />
        <mxCell id="WIyWlLk6GJQsqaUBKTNV-2" value="" style="rounded=0;html=1;jettySize=auto;orthogonalLoop=1;fontSize=11;endArrow=block;endFill=0;endSize=8;strokeWidth=1;shadow=0;labelBackgroundColor=none;edgeStyle=orthogonalEdgeStyle;" parent="WIyWlLk6GJQsqaUBKTNV-1" source="WIyWlLk6GJQsqaUBKTNV-3" edge="1">
          <mxGeometry relative="1" as="geometry">
            <mxPoint x="220" y="100" as="targetPoint" />
          </mxGeometry>
        </mxCell>
        <mxCell id="WIyWlLk6GJQsqaUBKTNV-3" value="영상 입력" style="rounded=1;whiteSpace=wrap;html=1;fontSize=12;glass=0;strokeWidth=1;shadow=0;" parent="WIyWlLk6GJQsqaUBKTNV-1" vertex="1">
          <mxGeometry x="160" y="42" width="120" height="18" as="geometry" />
        </mxCell>
        <mxCell id="WIyWlLk6GJQsqaUBKTNV-7" value="step = 0" style="rounded=1;whiteSpace=wrap;html=1;fontSize=12;glass=0;strokeWidth=1;shadow=0;" parent="WIyWlLk6GJQsqaUBKTNV-1" vertex="1">
          <mxGeometry x="160" y="100" width="120" height="18" as="geometry" />
        </mxCell>
        <mxCell id="y3ozLtBguuKfw4f1QjwZ-0" value="객체 탐지" style="rounded=1;whiteSpace=wrap;html=1;" parent="WIyWlLk6GJQsqaUBKTNV-1" vertex="1">
          <mxGeometry x="160" y="150" width="120" height="18" as="geometry" />
        </mxCell>
        <mxCell id="y3ozLtBguuKfw4f1QjwZ-1" value="" style="rounded=0;html=1;jettySize=auto;orthogonalLoop=1;fontSize=11;endArrow=block;endFill=0;endSize=8;strokeWidth=1;shadow=0;labelBackgroundColor=none;edgeStyle=orthogonalEdgeStyle;" parent="WIyWlLk6GJQsqaUBKTNV-1" edge="1">
          <mxGeometry relative="1" as="geometry">
            <mxPoint x="219.5" y="118" as="sourcePoint" />
            <mxPoint x="220" y="150" as="targetPoint" />
          </mxGeometry>
        </mxCell>
        <mxCell id="y3ozLtBguuKfw4f1QjwZ-2" value="새 or 동물 &lt;br&gt;탐지" style="rhombus;whiteSpace=wrap;html=1;" parent="WIyWlLk6GJQsqaUBKTNV-1" vertex="1">
          <mxGeometry x="160" y="206" width="120" height="58" as="geometry" />
        </mxCell>
        <mxCell id="y3ozLtBguuKfw4f1QjwZ-6" value="" style="rounded=0;html=1;jettySize=auto;orthogonalLoop=1;fontSize=11;endArrow=block;endFill=0;endSize=8;strokeWidth=1;shadow=0;labelBackgroundColor=none;edgeStyle=orthogonalEdgeStyle;" parent="WIyWlLk6GJQsqaUBKTNV-1" edge="1">
          <mxGeometry relative="1" as="geometry">
            <mxPoint x="219.5" y="168" as="sourcePoint" />
            <mxPoint x="220" y="206" as="targetPoint" />
            <Array as="points">
              <mxPoint x="220" y="186" />
              <mxPoint x="220" y="186" />
            </Array>
          </mxGeometry>
        </mxCell>
        <mxCell id="y3ozLtBguuKfw4f1QjwZ-8" value="step=1" style="rounded=1;whiteSpace=wrap;html=1;" parent="WIyWlLk6GJQsqaUBKTNV-1" vertex="1">
          <mxGeometry x="160" y="296" width="120" height="18" as="geometry" />
        </mxCell>
        <mxCell id="y3ozLtBguuKfw4f1QjwZ-9" value="" style="rounded=0;html=1;jettySize=auto;orthogonalLoop=1;fontSize=11;endArrow=block;endFill=0;endSize=8;strokeWidth=1;shadow=0;labelBackgroundColor=none;edgeStyle=orthogonalEdgeStyle;" parent="WIyWlLk6GJQsqaUBKTNV-1" edge="1">
          <mxGeometry relative="1" as="geometry">
            <mxPoint x="219.5" y="264" as="sourcePoint" />
            <mxPoint x="220" y="296" as="targetPoint" />
          </mxGeometry>
        </mxCell>
        <mxCell id="y3ozLtBguuKfw4f1QjwZ-10" value="y" style="text;html=1;resizable=0;autosize=1;align=center;verticalAlign=middle;points=[];fillColor=none;strokeColor=none;rounded=0;" parent="WIyWlLk6GJQsqaUBKTNV-1" vertex="1">
          <mxGeometry x="225" y="266" width="30" height="30" as="geometry" />
        </mxCell>
        <mxCell id="y3ozLtBguuKfw4f1QjwZ-13" value="라즈베리 step=1 전달" style="rounded=1;whiteSpace=wrap;html=1;" parent="WIyWlLk6GJQsqaUBKTNV-1" vertex="1">
          <mxGeometry x="160" y="346" width="120" height="18" as="geometry" />
        </mxCell>
        <mxCell id="y3ozLtBguuKfw4f1QjwZ-15" value="" style="rounded=0;html=1;jettySize=auto;orthogonalLoop=1;fontSize=11;endArrow=block;endFill=0;endSize=8;strokeWidth=1;shadow=0;labelBackgroundColor=none;edgeStyle=orthogonalEdgeStyle;" parent="WIyWlLk6GJQsqaUBKTNV-1" edge="1">
          <mxGeometry relative="1" as="geometry">
            <mxPoint x="219.5" y="314" as="sourcePoint" />
            <mxPoint x="220" y="346" as="targetPoint" />
          </mxGeometry>
        </mxCell>
        <mxCell id="y3ozLtBguuKfw4f1QjwZ-16" value="DB 삽입 1" style="rounded=1;whiteSpace=wrap;html=1;" parent="WIyWlLk6GJQsqaUBKTNV-1" vertex="1">
          <mxGeometry x="160" y="396" width="120" height="18" as="geometry" />
        </mxCell>
        <mxCell id="y3ozLtBguuKfw4f1QjwZ-17" value="" style="rounded=0;html=1;jettySize=auto;orthogonalLoop=1;fontSize=11;endArrow=block;endFill=0;endSize=8;strokeWidth=1;shadow=0;labelBackgroundColor=none;edgeStyle=orthogonalEdgeStyle;" parent="WIyWlLk6GJQsqaUBKTNV-1" edge="1">
          <mxGeometry relative="1" as="geometry">
            <mxPoint x="219.5" y="364" as="sourcePoint" />
            <mxPoint x="220" y="396" as="targetPoint" />
          </mxGeometry>
        </mxCell>
        <mxCell id="y3ozLtBguuKfw4f1QjwZ-20" value="영상 입력" style="rounded=1;whiteSpace=wrap;html=1;" parent="WIyWlLk6GJQsqaUBKTNV-1" vertex="1">
          <mxGeometry x="160" y="446" width="120" height="18" as="geometry" />
        </mxCell>
        <mxCell id="y3ozLtBguuKfw4f1QjwZ-21" value="" style="rounded=0;html=1;jettySize=auto;orthogonalLoop=1;fontSize=11;endArrow=block;endFill=0;endSize=8;strokeWidth=1;shadow=0;labelBackgroundColor=none;edgeStyle=orthogonalEdgeStyle;" parent="WIyWlLk6GJQsqaUBKTNV-1" edge="1">
          <mxGeometry relative="1" as="geometry">
            <mxPoint x="219.5" y="414" as="sourcePoint" />
            <mxPoint x="220" y="446" as="targetPoint" />
          </mxGeometry>
        </mxCell>
        <mxCell id="y3ozLtBguuKfw4f1QjwZ-22" value="객체 탐지" style="rounded=1;whiteSpace=wrap;html=1;" parent="WIyWlLk6GJQsqaUBKTNV-1" vertex="1">
          <mxGeometry x="160" y="496" width="120" height="18" as="geometry" />
        </mxCell>
        <mxCell id="y3ozLtBguuKfw4f1QjwZ-23" value="" style="rounded=0;html=1;jettySize=auto;orthogonalLoop=1;fontSize=11;endArrow=block;endFill=0;endSize=8;strokeWidth=1;shadow=0;labelBackgroundColor=none;edgeStyle=orthogonalEdgeStyle;" parent="WIyWlLk6GJQsqaUBKTNV-1" edge="1">
          <mxGeometry relative="1" as="geometry">
            <mxPoint x="219.5" y="464" as="sourcePoint" />
            <mxPoint x="220" y="496" as="targetPoint" />
          </mxGeometry>
        </mxCell>
        <mxCell id="y3ozLtBguuKfw4f1QjwZ-24" value="퇴치" style="rhombus;whiteSpace=wrap;html=1;" parent="WIyWlLk6GJQsqaUBKTNV-1" vertex="1">
          <mxGeometry x="180" y="547" width="80" height="30" as="geometry" />
        </mxCell>
        <mxCell id="y3ozLtBguuKfw4f1QjwZ-25" value="" style="rounded=0;html=1;jettySize=auto;orthogonalLoop=1;fontSize=11;endArrow=block;endFill=0;endSize=8;strokeWidth=1;shadow=0;labelBackgroundColor=none;edgeStyle=orthogonalEdgeStyle;" parent="WIyWlLk6GJQsqaUBKTNV-1" edge="1">
          <mxGeometry relative="1" as="geometry">
            <mxPoint x="219.5" y="514" as="sourcePoint" />
            <mxPoint x="220" y="546" as="targetPoint" />
            <Array as="points">
              <mxPoint x="220" y="530" />
              <mxPoint x="220" y="530" />
            </Array>
          </mxGeometry>
        </mxCell>
        <mxCell id="y3ozLtBguuKfw4f1QjwZ-27" value="" style="rounded=0;html=1;jettySize=auto;orthogonalLoop=1;fontSize=11;endArrow=block;endFill=0;endSize=8;strokeWidth=1;shadow=0;labelBackgroundColor=none;edgeStyle=orthogonalEdgeStyle;" parent="WIyWlLk6GJQsqaUBKTNV-1" edge="1">
          <mxGeometry relative="1" as="geometry">
            <mxPoint x="219.5" y="578" as="sourcePoint" />
            <mxPoint x="220" y="610" as="targetPoint" />
            <Array as="points">
              <mxPoint x="220" y="594" />
              <mxPoint x="220" y="594" />
            </Array>
          </mxGeometry>
        </mxCell>
        <mxCell id="y3ozLtBguuKfw4f1QjwZ-28" value="step=2" style="rounded=1;whiteSpace=wrap;html=1;" parent="WIyWlLk6GJQsqaUBKTNV-1" vertex="1">
          <mxGeometry x="160" y="610" width="120" height="18" as="geometry" />
        </mxCell>
        <mxCell id="y3ozLtBguuKfw4f1QjwZ-30" value="" style="endArrow=none;dashed=1;html=1;dashPattern=1 3;strokeWidth=2;rounded=0;shape=flexArrow;" parent="WIyWlLk6GJQsqaUBKTNV-1" edge="1">
          <mxGeometry width="50" height="50" relative="1" as="geometry">
            <mxPoint x="219.5" y="710" as="sourcePoint" />
            <mxPoint x="219.5" y="640" as="targetPoint" />
          </mxGeometry>
        </mxCell>
        <mxCell id="y3ozLtBguuKfw4f1QjwZ-31" value="DB 삽입 2" style="rounded=1;whiteSpace=wrap;html=1;" parent="WIyWlLk6GJQsqaUBKTNV-1" vertex="1">
          <mxGeometry x="320" y="553" width="120" height="18" as="geometry" />
        </mxCell>
        <mxCell id="y3ozLtBguuKfw4f1QjwZ-32" value="" style="rounded=0;html=1;jettySize=auto;orthogonalLoop=1;fontSize=11;endArrow=block;endFill=0;endSize=8;strokeWidth=1;shadow=0;labelBackgroundColor=none;edgeStyle=orthogonalEdgeStyle;" parent="WIyWlLk6GJQsqaUBKTNV-1" edge="1">
          <mxGeometry relative="1" as="geometry">
            <mxPoint x="260" y="561.5" as="sourcePoint" />
            <mxPoint x="320" y="561.5" as="targetPoint" />
            <Array as="points">
              <mxPoint x="260" y="561.5" />
              <mxPoint x="260" y="561.5" />
            </Array>
          </mxGeometry>
        </mxCell>
        <mxCell id="NQCeo1B5zTsyOqbLrF5j-0" value="DB 삽입(홀수 단위)&lt;br&gt;&amp;gt; 일련번호 / 이미지 경로 / 퇴치 단계 / 시간" style="text;html=1;resizable=0;autosize=1;align=center;verticalAlign=middle;points=[];fillColor=#dae8fc;strokeColor=#6c8ebf;rounded=0;" vertex="1" parent="WIyWlLk6GJQsqaUBKTNV-1">
          <mxGeometry x="445" y="30" width="250" height="40" as="geometry" />
        </mxCell>
        <mxCell id="NQCeo1B5zTsyOqbLrF5j-1" value="DB 삽입(짝수 단위)&lt;br&gt;&amp;gt; 일련번호 / 이미지 경로 / 퇴치 단계 / 시간&lt;br&gt;&lt;br&gt;&amp;gt;&amp;gt; 짝수 단위 일 때는 퇴치 단계는 &#39;퇴치 성공&#39;" style="text;html=1;resizable=0;autosize=1;align=center;verticalAlign=middle;points=[];fillColor=#f8cecc;strokeColor=#b85450;rounded=0;" vertex="1" parent="WIyWlLk6GJQsqaUBKTNV-1">
          <mxGeometry x="440" y="124" width="260" height="70" as="geometry" />
        </mxCell>
        <mxCell id="NQCeo1B5zTsyOqbLrF5j-6" value="" style="curved=1;endArrow=classic;html=1;rounded=0;exitX=0;exitY=0.5;exitDx=0;exitDy=0;entryX=0;entryY=0.25;entryDx=0;entryDy=0;" edge="1" parent="WIyWlLk6GJQsqaUBKTNV-1" source="y3ozLtBguuKfw4f1QjwZ-2" target="WIyWlLk6GJQsqaUBKTNV-3">
          <mxGeometry width="50" height="50" relative="1" as="geometry">
            <mxPoint x="70" y="218" as="sourcePoint" />
            <mxPoint x="120" y="168" as="targetPoint" />
            <Array as="points">
              <mxPoint x="120" y="218" />
              <mxPoint x="70" y="168" />
            </Array>
          </mxGeometry>
        </mxCell>
        <mxCell id="NQCeo1B5zTsyOqbLrF5j-7" value="" style="curved=1;endArrow=classic;html=1;rounded=0;exitX=0.5;exitY=0;exitDx=0;exitDy=0;entryX=1;entryY=0.25;entryDx=0;entryDy=0;" edge="1" parent="WIyWlLk6GJQsqaUBKTNV-1" source="y3ozLtBguuKfw4f1QjwZ-31" target="WIyWlLk6GJQsqaUBKTNV-3">
          <mxGeometry width="50" height="50" relative="1" as="geometry">
            <mxPoint x="400" y="508.5" as="sourcePoint" />
            <mxPoint x="400" y="320" as="targetPoint" />
            <Array as="points">
              <mxPoint x="390" y="490" />
              <mxPoint x="390" y="140" />
            </Array>
          </mxGeometry>
        </mxCell>
        <mxCell id="NQCeo1B5zTsyOqbLrF5j-8" value="n" style="text;html=1;resizable=0;autosize=1;align=center;verticalAlign=middle;points=[];fillColor=none;strokeColor=none;rounded=0;" vertex="1" parent="WIyWlLk6GJQsqaUBKTNV-1">
          <mxGeometry x="150" y="194" width="30" height="30" as="geometry" />
        </mxCell>
        <mxCell id="NQCeo1B5zTsyOqbLrF5j-9" value="n" style="text;html=1;resizable=0;autosize=1;align=center;verticalAlign=middle;points=[];fillColor=none;strokeColor=none;rounded=0;" vertex="1" parent="WIyWlLk6GJQsqaUBKTNV-1">
          <mxGeometry x="180" y="580" width="30" height="30" as="geometry" />
        </mxCell>
        <mxCell id="NQCeo1B5zTsyOqbLrF5j-10" value="y" style="text;html=1;resizable=0;autosize=1;align=center;verticalAlign=middle;points=[];fillColor=none;strokeColor=none;rounded=0;" vertex="1" parent="WIyWlLk6GJQsqaUBKTNV-1">
          <mxGeometry x="250" y="523" width="30" height="30" as="geometry" />
        </mxCell>
        <mxCell id="NQCeo1B5zTsyOqbLrF5j-11" value="이하 과정 동일" style="text;html=1;resizable=0;autosize=1;align=center;verticalAlign=middle;points=[];fillColor=#fff2cc;strokeColor=#d6b656;rounded=0;" vertex="1" parent="WIyWlLk6GJQsqaUBKTNV-1">
          <mxGeometry x="240" y="655" width="100" height="30" as="geometry" />
        </mxCell>
      </root>
    </mxGraphModel>
  </diagram>
</mxfile>
